<svg xmlns="http://www.w3.org/2000/svg" width="67" height="60" viewBox="0 0 67 60" fill="none">
  <path d="M0 29.9433C0 13.4061 13.4061 0 29.9433 0H36.9069C53.4441 0 66.8502 13.4061 66.8502 29.9433C66.8502 46.4806 53.4441 59.8866 36.9069 59.8866H29.9433C13.4061 59.8866 0 46.4806 0 29.9433Z" fill="#321D1D"/>
  <path d="M0.696356 27.8543C0.696356 12.8554 12.8554 0.696356 27.8542 0.696356H38.996C53.9948 0.696356 66.1538 12.8554 66.1538 27.8543C66.1538 42.8531 53.9948 55.0121 38.996 55.0121H27.8542C12.8554 55.0121 0.696356 42.8531 0.696356 27.8543Z" fill="white" stroke="#321D1D" stroke-width="1.39271"/>
  <path d="M26.9122 27.7619H29.9654V40.3317C29.9654 40.5799 30.1665 40.781 30.4147 40.781H35.5916C35.8398 40.781 36.0409 40.5799 36.0409 40.3317V27.8211H39.5509C39.7791 27.8211 39.9711 27.6499 39.9972 27.4232L40.5303 22.7956C40.5449 22.6683 40.5046 22.5408 40.4194 22.4453C40.3341 22.3497 40.2121 22.295 40.0841 22.295H36.0411V19.3942C36.0411 18.5197 36.5119 18.0763 37.4406 18.0763C37.573 18.0763 40.0841 18.0763 40.0841 18.0763C40.3322 18.0763 40.5333 17.8751 40.5333 17.627V13.3793C40.5333 13.1312 40.3322 12.9301 40.0841 12.9301H36.441C36.4153 12.9288 36.3582 12.9268 36.2741 12.9268C35.642 12.9268 33.4449 13.0508 31.7093 14.6475C29.7863 16.4169 30.0536 18.5354 30.1175 18.9028V22.2949H26.9122C26.664 22.2949 26.4629 22.496 26.4629 22.7441V27.3126C26.4629 27.5608 26.664 27.7619 26.9122 27.7619Z" fill="#321D1D"/>
</svg>