<svg xmlns="http://www.w3.org/2000/svg" width="85" height="90" viewBox="0 0 85 90" fill="none">
  <path d="M66.6603 54.8015C69.5499 54.3361 72.4304 53.8142 75.2996 53.2313C78.3631 52.1153 81.5531 51.3607 84.6663 50.3869C84.6685 50.3869 84.6685 50.3847 84.6685 50.3847C84.7453 49.9374 84.594 49.4539 84.1557 49.2347C78.6251 46.4672 72.9545 44.0024 67.1732 41.8471C69.0054 40.1324 70.8354 38.4154 72.6676 36.6984C76.4314 32.5979 80.2608 28.5539 83.6971 24.1597C83.6971 23.7531 83.5931 23.3622 83.3311 23.0143C83.3175 22.994 83.2971 22.9782 83.2836 22.9601C80.8888 22.7297 78.4918 22.576 76.097 22.3817C75.8982 22.3659 75.7017 22.3524 75.5051 22.3388C72.1615 22.5037 68.8269 22.7929 65.5036 23.2086C62.047 23.6401 58.6062 24.2049 55.188 24.894C55.188 21.2566 55.1767 17.6193 55.0525 13.9842C54.9666 11.5217 54.8085 9.06141 54.5148 6.61694C54.1307 4.78246 53.7038 2.96153 53.2045 1.16093C53.0373 0.871758 52.8452 0.591629 52.6193 0.327301C52.2511 -0.106468 51.4332 -0.113243 51.0672 0.331825C49.6394 2.07142 48.5821 4.0437 47.5067 6.02729C46.3071 8.24358 45.1074 10.4576 43.9055 12.6739C42.1614 15.8955 40.4173 19.1149 38.6732 22.3366C33.834 19.3567 28.9699 16.4219 24.0809 13.5369C23.8844 13.4579 23.6901 13.3765 23.4913 13.302C21.9618 12.7304 20.421 12.2153 18.9458 11.4991C18.5165 11.289 18.0827 11.0766 17.6445 10.8823C17.4208 11.1399 17.3146 11.4923 17.4501 11.8787C19.576 17.965 21.4535 24.1394 23.0846 30.3861C19.4179 31.3147 15.7512 32.2432 12.0845 33.1695C8.06084 34.1884 3.72768 34.9294 0.219126 37.3422C0.137794 37.3987 0.0655172 37.4665 0 37.5456C1.05505 38.2776 2.06714 39.0886 3.08153 39.8839C3.76607 40.4215 4.46421 40.9276 5.1736 41.4088C9.78013 43.1913 14.5267 44.5243 19.3773 45.4009C18.0534 49.7544 16.7295 54.1079 15.4078 58.4591C14.6036 61.1069 13.7993 63.7525 12.995 66.398C12.2133 68.9712 11.1627 71.5987 11.0204 74.3165C11.0069 74.5854 11.0927 74.8181 11.2373 75.0011C12.8436 74.4408 14.4409 73.8421 16.0472 73.2863C21.6432 69.963 27.2371 66.6375 32.8309 63.3119C34.2158 70.0534 35.7023 76.7745 37.6091 83.3737C38.7523 85.6171 39.8706 87.8763 41.19 90C41.3052 89.9119 41.4068 89.7921 41.4814 89.6317C45.2136 81.668 48.8193 73.6455 52.303 65.5643C54.7339 67.374 57.1716 69.1723 59.6229 70.9526C60.9739 71.9331 62.3181 72.9587 63.694 73.9392C65.6075 74.4611 67.4014 75.4461 69.211 76.2888C70.0017 76.6571 70.8128 76.9824 71.6329 77.2874C71.7729 77.0186 71.8317 76.6977 71.782 76.4086C70.5439 69.0955 68.8314 61.8773 66.6603 54.8015Z" fill="#321D1D"/>
</svg>