<svg xmlns="http://www.w3.org/2000/svg" width="90" height="90" viewBox="0 0 90 90" fill="none">
  <path d="M86.329 12.4494C84.9557 9.11575 83.2616 5.48721 80.8837 2.60358C77.9823 1.51788 75.0528 0.539124 71.9685 0.158936C67.8318 -0.350983 63.5937 0.384354 59.8002 2.10181C57.2028 4.25941 54.9459 6.90385 52.8916 9.47708C49.7482 13.4149 47.0241 17.6445 44.7446 22.1277C41.3367 14.8298 36.896 7.80097 29.675 3.81194C29.5849 3.76298 29.4949 3.71852 29.4076 3.67097C26.8777 2.70347 24.2831 1.95802 21.6801 1.23169C20.0113 1.0316 18.3087 1.01444 16.5724 1.16697C15.8914 1.22691 15.2019 1.28628 14.5124 1.36536C13.7723 1.67998 13.035 1.99742 12.3005 2.32188C10.4939 3.12054 8.71535 3.97377 6.89742 4.74484C6.25861 5.45344 5.70145 6.23943 5.18646 7.04259C3.5008 9.66986 1.87421 12.6103 0.745744 15.6625C0.529056 20.2715 0.106937 24.8856 0 29.485C0.489658 31.4985 1.16506 33.4777 1.9108 35.4045C5.52696 44.7415 9.84382 53.9741 15.9702 61.9462C19.6511 66.7328 23.7485 71.2058 27.6995 75.7656C30.8288 79.3772 33.9609 82.9892 37.0902 86.6005C37.3322 86.8116 37.5742 87.0227 37.8134 87.2337C38.8828 88.1736 39.9607 89.0967 41.0525 90C44.0637 88.3622 46.6976 86.1531 49.2247 83.8264C54.8699 78.1399 60.4588 72.3973 65.8337 66.4545C69.5681 62.3256 73.1983 58.1013 76.6625 53.7425C79.9691 49.5807 83.4361 45.3316 85.9998 40.6593C86.4979 39.7535 86.9341 38.8313 87.3168 37.8958C87.5251 36.9756 87.7305 36.0599 87.9106 35.1498C88.4565 32.3692 89.0025 29.5809 89.3711 26.7758C89.3317 21.913 88.2088 17.0153 86.329 12.4494Z" fill="#321D1D"/>
</svg>