<svg xmlns="http://www.w3.org/2000/svg" width="93" height="90" viewBox="0 0 93 90" fill="none">
  <path d="M92.5778 47.5187C92.5424 46.9282 92.5106 46.3378 92.481 45.7473C92.437 45.5496 92.3893 45.3519 92.3339 45.1542C91.0033 40.3963 86.8933 37.1857 82.2756 35.8677C79.3476 35.0321 76.2498 34.9451 73.2397 35.2957C72.63 35.3642 72.0232 35.4538 71.4178 35.554C74.2127 32.9497 76.7696 30.1028 79.3009 27.2375C80.3416 26.0619 81.3411 24.7834 82.2007 23.418C82.8407 21.4436 83.486 19.4719 84.1838 17.5187C84.1456 16.8201 84.1008 16.1216 84.0388 15.4257C83.9505 14.4372 83.9033 13.4145 83.8221 12.3943C82.9082 10.6493 81.9047 8.95703 80.877 7.27528C80.0379 6.56357 79.1222 5.9573 78.1846 5.48546C74.7277 3.74835 70.5345 3.33978 66.8908 4.75003C63.4065 6.09965 60.4142 8.74879 57.8697 11.6484C57.7987 6.12863 55.9193 0.635277 50.1731 0.0184555C50.0904 0.0105515 50.0089 0.00527191 49.9267 0C48.9706 0.050087 48.0359 0.197701 47.0991 0.266235C46.7448 0.442848 46.3921 0.622093 46.0497 0.822426C44.6761 1.62112 43.4659 2.67814 42.3707 3.84324C40.512 6.48976 39.5241 10.0984 39.3572 13.3907C37.9251 10.4938 36.2665 7.6944 34.278 5.20077C31.9826 2.32229 28.6457 0.869865 25.1427 0.917313C24.0791 1.09393 23.049 1.44978 22.0273 1.92426C20.4505 2.65179 19.0007 3.59283 17.4839 4.43107C16.8426 4.78429 16.1654 5.1296 15.5214 5.51972C15.4785 5.56981 15.4342 5.62254 15.392 5.67262C14.4359 7.84993 13.6191 10.0931 12.8467 12.3522C13.0695 13.5014 13.2914 14.6534 13.5321 15.8053C14.2161 19.0765 15.567 22.1474 16.6101 25.3132C18.7442 29.2567 21.184 33.0182 23.8809 36.5952C19.807 35.7122 15.6601 35.0769 11.5026 35.4248C11.3176 35.4406 11.1339 35.4591 10.9512 35.4802C8.30152 36.7455 5.66976 38.0529 3.24177 39.6767C2.27094 40.963 1.50678 42.4286 0.947687 43.9074C-0.415111 47.5134 -0.345793 51.5622 1.40107 54.9442C2.32629 55.8299 3.14424 56.8395 4.03203 57.7673C5.53216 59.3384 7.57874 60.6933 9.77108 60.9489C12.5402 61.2732 15.2568 60.6432 17.9837 60.2979C20.2773 59.913 22.5595 59.4464 24.7848 58.769C26.2169 58.3341 27.6074 57.7963 28.9733 57.1848C30.0045 56.7261 31.0146 56.2358 32.0888 55.9643C31.8207 67.2568 32.0804 78.5599 32.8553 89.8287C37.6011 89.855 42.3461 89.9921 47.0935 89.9947C50.7227 89.9974 54.3538 89.9605 57.9827 90C58.5595 79.9359 58.7809 69.8533 58.6494 59.7707C60.1242 59.9657 61.5988 60.1582 63.0733 60.3532C63.7313 60.4402 64.3958 60.5404 65.0638 60.6458C68.015 59.8181 71.2939 60.5562 74.302 60.6695C75.6153 60.7196 77.0218 60.6827 78.4263 60.5193C79.3333 60.2741 80.2259 60.0105 81.0891 59.7707C82.2996 59.4359 83.515 59.0563 84.6902 58.5818C84.9403 58.4316 85.186 58.2761 85.4208 58.1074C86.9705 56.9897 88.3689 55.6216 89.6197 54.1798C90.2539 53.4496 90.8494 52.6825 91.3977 51.8838C91.7511 51.3698 92.2646 50.7161 92.5667 50.0703C92.6247 49.7672 92.6698 49.4587 92.7003 49.1503C92.6205 48.6126 92.6102 48.059 92.5778 47.5187Z" fill="#321D1D"/>
</svg>