<svg xmlns="http://www.w3.org/2000/svg" width="62" height="90" viewBox="0 0 62 90" fill="none">
  <path d="M61.2164 25.7317C61.1963 24.3431 61.2164 22.7018 60.2828 21.571C59.4164 20.5192 57.9902 20.1939 56.8328 20.9573C55.6708 21.7255 54.9208 23.3307 54.3678 24.5616C52.9193 27.7954 52.3685 31.3361 51.3566 34.7136C50.7857 36.6189 50.1252 38.4982 49.3819 40.3434C49.1849 40.8362 48.576 42.7844 47.8439 43.9517C47.0647 42.3266 47.3625 40.01 47.4946 38.4106C47.7386 35.4345 48.2222 32.4869 48.7662 29.5522C49.8386 23.7472 51.1551 17.9508 51.4708 12.0383C51.5894 9.8243 52.1133 6.43202 50.3021 4.73499C48.3498 2.90832 46.214 4.71931 45.314 6.60172C44.1117 9.11257 43.5587 11.8444 42.9968 14.5516C42.3654 17.6025 41.7318 20.6531 41.1005 23.7039C40.3773 27.1907 39.6542 30.6772 38.9333 34.164C38.5818 35.8552 38.2728 37.5616 37.8788 39.2426C37.7646 39.7221 37.6505 40.5142 37.2094 40.8162C37.1243 40.8751 37.0258 40.9098 36.9251 40.9246C36.8601 36.039 36.8848 31.1517 37.2519 26.2775C37.4982 22.9824 37.9863 19.7065 38.1318 16.4038C38.2728 13.2128 38.096 10.0063 38.434 6.82471C38.6825 4.50438 39.2691 1.13943 36.3654 0.182106C33.634 -0.717232 31.7242 1.89212 30.9563 4.11639C29.9533 7.01569 29.5212 10.1048 28.9839 13.1136C28.4041 16.3431 27.8265 19.5728 27.2466 22.8024C26.7518 25.5658 26.257 28.3289 25.7622 31.0921C25.7846 29.5827 25.7936 28.0753 25.7645 26.5728C25.6346 20.0784 25.2876 13.5898 24.9854 7.10165C24.8869 5.02581 25.1555 1.63847 22.4018 1.20727C19.6771 0.780548 18.4972 3.54081 18.0987 5.71471C16.9188 12.1731 15.8129 18.646 14.6688 25.1108C13.6837 30.6761 12.6987 36.241 11.7158 41.806C11.3195 40.0712 10.9255 38.3361 10.5315 36.6012C9.74339 33.1388 9.07622 29.6205 8.15158 26.1917C7.51351 23.8219 5.68215 21.4931 2.96197 22.6248C0.109698 23.8112 -0.0336003 27.0179 0.00445986 29.6747C0.0223705 30.8695 0.0380467 32.0646 0.0537186 33.2597C0.360439 36.8736 0.575362 40.4981 0.989546 44.1024C1.48209 48.3575 2.18733 52.584 2.84107 56.8181C4.34332 62.3491 5.95753 67.8546 7.58964 73.3427C9.09862 78.4177 10.733 83.4617 12.739 88.3581C12.9337 88.8014 13.124 89.2447 13.3233 89.6857C13.8718 89.7103 14.4203 89.7327 14.9711 89.7529C26.1831 90.1827 37.4019 89.9409 48.6185 89.8469C48.8715 88.0267 49.1043 86.2021 49.3058 84.3729C49.7155 80.6798 49.8431 76.9508 50.2976 73.265C50.7431 69.6645 51.7013 66.0983 52.5499 62.5761C53.4185 58.9647 54.3521 55.3687 55.3484 51.7897C57.2693 44.8844 59.8843 38.0475 60.8649 30.9215C61.1022 29.2014 61.241 27.469 61.2164 25.7317Z" fill="#321D1D"/>
</svg>