<svg xmlns="http://www.w3.org/2000/svg" width="68" height="60" viewBox="0 0 68 60" fill="none">
  <path d="M0.703125 29.9433C0.703125 13.4061 14.1092 0 30.6464 0H37.61C54.1472 0 67.5533 13.4061 67.5533 29.9433C67.5533 46.4806 54.1473 59.8866 37.61 59.8866H30.6464C14.1092 59.8866 0.703125 46.4806 0.703125 29.9433Z" fill="#321D1D"/>
  <path d="M1.39948 27.8543C1.39948 12.8554 13.5585 0.696356 28.5574 0.696356H39.6991C54.698 0.696356 66.857 12.8554 66.857 27.8543C66.857 42.8531 54.698 55.0121 39.6991 55.0121H28.5574C13.5585 55.0121 1.39948 42.8531 1.39948 27.8543Z" fill="white" stroke="#321D1D" stroke-width="1.39271"/>
  <path fill-rule="evenodd" clip-rule="evenodd" d="M40.0961 14.9268H28.1586C23.7633 14.9268 20.2002 18.4898 20.2002 22.8851V34.8227C20.2002 39.2179 23.7633 42.781 28.1586 42.781H40.0961C44.4913 42.781 48.0544 39.2179 48.0544 34.8227V22.8851C48.0544 18.4898 44.4913 14.9268 40.0961 14.9268Z" stroke="#321D1D" stroke-width="2.98438" stroke-linecap="round" stroke-linejoin="round"/>
  <path fill-rule="evenodd" clip-rule="evenodd" d="M34.1279 35.8223C30.8314 35.8223 28.1592 33.1501 28.1592 29.8535C28.1592 26.557 30.8314 23.8848 34.1279 23.8848C37.4245 23.8848 40.0967 26.557 40.0967 29.8535C40.0967 31.4365 39.4678 32.9547 38.3485 34.0741C37.2291 35.1934 35.7109 35.8223 34.1279 35.8223Z" stroke="#321D1D" stroke-width="2.98438" stroke-linecap="round" stroke-linejoin="round"/>
  <path d="M42.0853 19.9056C40.9865 19.9056 40.0957 20.7964 40.0957 21.8952C40.0957 22.994 40.9865 23.8848 42.0853 23.8848C43.1841 23.8848 44.0749 22.994 44.0749 21.8952C44.0749 20.7964 43.1841 19.9056 42.0853 19.9056Z" fill="#321D1D"/>
  <path d="M42.0856 20.901C41.5362 20.901 41.0908 21.3464 41.0908 21.8958C41.0908 22.4452 41.5362 22.8906 42.0856 22.8906C42.635 22.8906 43.0804 22.4452 43.0804 21.8958C43.0804 21.3464 42.635 20.901 42.0856 20.901Z" stroke="#321D1D" stroke-width="1.98959" stroke-linecap="round"/>
</svg>