<svg width="18" height="18" viewBox="0 0 18 18" fill="none" xmlns="http://www.w3.org/2000/svg">
<path d="M0.0283086 9.33184C-0.0094362 9.16077 -0.0094362 8.9712 0.0283086 8.80085C0.0283086 8.76309 0.0660534 8.72532 0.0660534 8.70606C0.0660534 8.66829 0.0660534 8.61127 0.103798 8.5735C0.141543 8.49796 0.141543 8.47871 0.179288 8.44094C0.217033 8.40317 0.217033 8.3654 0.254777 8.34615C0.330267 8.27061 0.349509 8.21359 0.425737 8.1373V8.09953L8.0465 0.398428C8.31219 0.132574 8.65337 0 8.97531 0C9.31649 0 9.63843 0.132559 9.90411 0.398428C10.4348 0.929417 10.4348 1.76402 9.90411 2.29503L8.99454 3.24369L4.53989 7.68262L8.9953 7.68188L16.6538 7.68188C17.3931 7.68188 18 8.28913 18 9.02897C18 9.7688 17.3931 10.3761 16.6538 10.3761L8.9953 10.3753H4.53989L9.033 14.7758L9.96181 15.7052C10.4925 16.2361 10.4925 17.0708 9.96181 17.6018C9.43116 18.1327 8.59708 18.1327 8.06642 17.6018L0.407947 9.99621V9.95844C0.332457 9.90141 0.275471 9.82588 0.236987 9.76885C0.199242 9.73108 0.199242 9.69332 0.161497 9.67406C0.123752 9.59852 0.123752 9.57927 0.0860076 9.5415C0.0860076 9.50373 0.0482628 9.44671 0.0482628 9.40894C0.0282802 9.36969 0.0283086 9.33184 0.0283086 9.33184Z" fill="#321D1D"/>
</svg>
