<svg xmlns="http://www.w3.org/2000/svg" width="36" height="37" viewBox="0 0 36 37" fill="none">
  <path d="M23.625 14.7229L21.2008 17.1646C20.4686 17.9022 20.4686 19.0979 21.2008 19.8355L23.625 22.2772M21.75 18.5001L33 18.5001M3 27.9428V9.05721M25.5 27.9428C25.5 30.0288 23.8211 31.7199 21.75 31.7199H14.25M25.5 9.05721C25.5 6.97117 23.8211 5.28009 21.75 5.28009H14.25M4.66987 32.8412L8.41988 35.3593C10.912 37.0327 14.25 35.2333 14.25 32.2165V4.78347C14.25 1.7667 10.912 -0.0326839 8.41988 1.64072L4.66987 4.1588C3.62663 4.85932 3 6.03865 3 7.30155V29.6985C3 30.9613 3.62663 32.1407 4.66987 32.8412Z" stroke="#321D1D" stroke-width="1.5" stroke-linecap="round"/>
</svg>