<svg xmlns="http://www.w3.org/2000/svg" width="30" height="30" viewBox="0 0 30 30" fill="none">
  <path d="M0.500937 14.342C0.560937 6.587 6.92094 -0.133 15.2759 0.00199957C23.2109 0.137 29.5409 6.482 29.5559 14.522C29.5559 22.682 23.0459 29.117 14.7809 29.042C6.81594 28.967 0.410937 22.397 0.500937 14.342ZM9.56094 16.352C10.5809 16.352 11.3909 15.557 11.4059 14.552C11.4059 13.547 10.5959 12.722 9.59094 12.707C8.58594 12.707 7.76094 13.517 7.74594 14.522C7.74594 15.527 8.55594 16.352 9.56094 16.352ZM16.8659 9.077C16.8659 8.072 16.0409 7.247 15.0359 7.247C14.0159 7.247 13.2059 8.057 13.2059 9.077C13.2059 10.082 14.0309 10.907 15.0359 10.907C16.0259 10.907 16.8659 10.067 16.8659 9.077ZM20.5109 16.352C21.5159 16.352 22.3409 15.527 22.3259 14.522C22.3259 13.532 21.4709 12.692 20.4809 12.707C19.4759 12.707 18.6659 13.547 18.6659 14.552C18.6659 15.572 19.4909 16.367 20.4959 16.352H20.5109ZM16.8659 19.997C16.8659 18.992 16.0409 18.167 15.0359 18.182C14.0309 18.182 13.2209 19.007 13.2209 20.012C13.2209 21.017 14.0459 21.842 15.0509 21.827C16.0559 21.827 16.8809 21.002 16.8659 19.997ZM19.4609 5.747C20.0309 5.747 20.4659 5.597 20.7209 5.147C20.9759 4.697 20.8859 4.247 20.6159 3.827C20.1809 3.137 19.5209 2.762 18.7109 2.717C18.2309 2.687 17.7809 2.852 17.5109 3.287C17.2559 3.722 17.3309 4.157 17.5709 4.577C18.0059 5.312 18.6809 5.672 19.4609 5.732V5.747ZM19.5509 23.297C18.6659 23.297 17.7959 23.867 17.4659 24.662C17.1509 25.442 17.5409 26.147 18.3659 26.282C19.1909 26.432 20.1359 25.982 20.6009 25.217C20.8559 24.797 20.9759 24.347 20.7209 23.897C20.4659 23.447 20.0309 23.297 19.5359 23.297H19.5509ZM23.8109 18.842C23.7959 20.027 24.5609 20.612 25.4759 20.237C26.2409 19.922 26.8559 18.977 26.8409 18.152C26.8109 17.042 25.8659 16.517 24.9209 17.102C24.2159 17.537 23.8559 18.182 23.8109 18.857V18.842ZM23.8109 10.127C23.8559 10.907 24.2609 11.627 25.1159 12.047C25.9109 12.437 26.6609 12.032 26.8109 11.162C26.9609 10.322 26.4509 9.332 25.6559 8.897C24.7109 8.387 23.8259 8.897 23.8109 10.127ZM10.6709 23.297C9.41094 23.297 8.87094 24.227 9.42594 25.157C9.84594 25.877 10.5209 26.267 11.3459 26.312C11.8409 26.342 12.3059 26.177 12.5609 25.712C12.8009 25.262 12.7109 24.812 12.4409 24.392C11.9909 23.687 11.3309 23.327 10.6559 23.297H10.6709ZM10.5059 5.747C11.3609 5.747 12.2309 5.192 12.5759 4.427C12.9059 3.677 12.5759 2.972 11.7809 2.777C10.9709 2.567 9.87594 3.077 9.41094 3.887C8.87094 4.832 9.41094 5.747 10.5059 5.747ZM6.26094 10.097C6.26094 9.542 6.11094 9.092 5.64594 8.837C5.19594 8.582 4.73094 8.687 4.32594 8.957C3.59094 9.437 3.23094 10.127 3.24594 10.997C3.26094 11.972 4.13094 12.482 5.00094 12.047C5.79594 11.642 6.17094 10.937 6.26094 10.112V10.097ZM6.26094 19.082C6.26094 18.167 5.66094 17.267 4.85094 16.967C4.10094 16.697 3.42594 17.072 3.29094 17.852C3.12594 18.737 3.65094 19.757 4.46094 20.192C5.39094 20.672 6.26094 20.147 6.26094 19.097V19.082Z" fill="#FF816B"/>
</svg>