<svg xmlns="http://www.w3.org/2000/svg" width="36" height="37" viewBox="0 0 36 37" fill="none">
  <path d="M21.4219 0L13.467 4.91732e-07C10.1727 0.00368067 7.50366 2.67268 7.50003 5.96698L7.50002 15.5406C7.49545 17.1237 8.12445 18.6426 9.24711 19.7598L13.5871 24.0998C14.1493 24.6583 14.4643 25.4183 14.4616 26.2103L14.4616 35.1594C14.4616 35.7088 14.9065 36.1538 15.4559 36.1538H19.4333C19.9827 36.1538 20.4276 35.7088 20.4276 35.1594L20.4267 26.2093C20.4249 25.4183 20.7389 24.6574 21.3002 24.0998L25.6402 19.7597C26.7628 18.6427 27.3918 17.1237 27.3873 15.5406L27.3873 5.96695C27.3855 2.67263 24.7162 0.00363458 21.4219 0ZM18.439 34.1648H16.4503L16.4503 31.1818H18.439L18.439 34.1648ZM18.4408 29.1915H16.4485L16.4503 27.2028H18.4372L18.4408 29.1915ZM25.3995 5.9644L25.4005 15.5408C25.4032 16.5965 24.9839 17.6092 24.2358 18.3535L19.8958 22.6936C19.2045 23.3812 18.7321 24.2583 18.5389 25.2152H16.3524C16.1592 24.2584 15.6868 23.3812 14.9955 22.6936L10.6536 18.3535C9.90554 17.6091 9.48619 16.5965 9.48893 15.5408L9.48893 5.96719C9.49167 3.77066 11.2706 1.9917 13.4673 1.98881L21.4222 1.98881C23.6187 1.99156 25.3977 3.77051 25.4006 5.96719L25.3995 5.9644ZM13.4665 9.94441C13.4665 12.1419 15.2473 13.9227 17.4449 13.9228C19.6425 13.9229 21.4232 12.142 21.4233 9.94441C21.4234 7.74685 19.6425 5.96616 17.4458 5.96698C15.2493 5.96972 13.4703 7.74865 13.4665 9.94441ZM19.4342 9.94441C19.4342 11.0432 18.5443 11.9331 17.4455 11.9331C16.3468 11.9331 15.4568 11.0432 15.4568 9.94441C15.4568 8.84567 16.3468 7.95572 17.4455 7.95572C18.5424 7.95757 19.4314 8.8466 19.4342 9.94441Z" fill="#321D1D"/>
</svg>